<svg width="1670" height="20" viewBox="0 0 1670 20" xmlns="http://www.w3.org/2000/svg"><svg x="0" width="20" height="20" viewBox="0 0 20 20" xmlns="http://www.w3.org/2000/svg"><g fill="none" fill-rule="evenodd"><path d="M11 9h3v2h-3v3H9v-3H6V9h3V6h2v3zm-1 10.767c5.458 0 9.883-4.425 9.883-9.884C19.883 4.425 15.458 0 10 0 4.542 0 .117 4.425.117 9.883c0 5.46 4.425 9.884 9.883 9.884z" fill="#4E4E4E"/></g></svg><svg x="40" width="20" height="20" viewBox="0 0 20 20" xmlns="http://www.w3.org/2000/svg"><g fill="none" fill-rule="evenodd"><path d="M0 10l10 10 10-10L10 0 0 10zm10.715 1.003H9.22V6.076h1.495v4.927zm-.737 3.817c-.44 0-.805-.366-.806-.805.002-.43.366-.794.806-.795.44 0 .794.366.795.795 0 .437-.355.804-.795.805z" fill="#4E4E4E"/></g></svg><svg x="80" width="20" height="20" viewBox="0 0 20 20" xmlns="http://www.w3.org/2000/svg"><g fill="none" fill-rule="evenodd"><path d="M10.065 16.92c.252 0 .457-.208.457-.462 0-.255-.205-.462-.457-.462s-.456.207-.456.462c0 .254.203.46.455.46zm0-2.77c.252 0 .457-.206.457-.46 0-.256-.205-.462-.457-.462s-.456.206-.456.46c0 .256.203.463.455.463zm-1.802-.95c0-.48.19-.91.5-1.227.312-.317.735-.51 1.203-.51h.27c.467 0 .89.193 1.202.51.31.318.5.75.5 1.226v6.713h1.24l-.014-6.714c0-.823-.33-1.572-.86-2.11-.528-.54-1.263-.877-2.068-.877h-.27c-.806 0-1.54.338-2.07.877-.527.538-.858 1.287-.858 2.11v6.713h1.225V13.2zm3.24-6.483c0 .395-.155.747-.41 1.007-.253.26-.598.417-.985.417s-.732-.157-.987-.416c-.252-.26-.407-.612-.408-1.007 0-.395.156-.747.41-1.006.254-.258.6-.416.986-.416.387 0 .732.158.986.417.254.26.41.612.41 1.007h1.224c0-.736-.294-1.408-.767-1.89-.472-.483-1.13-.784-1.852-.783-.722 0-1.38.3-1.853.783-.474.482-.768 1.154-.768 1.89 0 .737.294 1.41.768 1.89.472.484 1.13.785 1.853.784.72.002 1.38-.3 1.853-.782.474-.482.768-1.154.768-1.89h-1.225z" fill="#4E4E4E"/></g></svg><svg x="120" width="20" height="20" viewBox="0 0 20 20" xmlns="http://www.w3.org/2000/svg"><g fill="none" fill-rule="evenodd"><path d="M4.005 9.083L8.95 3.54 7.265 2 0 10.14l7.246 8.17 1.692-1.535L4.15 11.38h15.837V9.083H4.005z" fill="#4F4F4F"/></g></svg><svg x="160" width="20" height="20" viewBox="0 0 20 20" xmlns="http://www.w3.org/2000/svg"><g fill="none" fill-rule="evenodd"><g fill="#4E4E4E"><path d="M17.365 8.502c-.2-.31-.2-.878 0-1.188l.218-.34c.228-.357.296-.774.19-1.172-.108-.4-.374-.726-.752-.92l-.356-.186c-.33-.17-.612-.66-.595-1.03l.018-.402c.02-.41-.122-.796-.4-1.086-.275-.288-.652-.447-1.06-.447-.024 0-.048 0-.073.002l-.403.02h-.03c-.37 0-.835-.278-1-.595L12.94.8c-.255-.494-.75-.8-1.292-.8-.28 0-.558.082-.802.238l-.34.217c-.147.096-.363.15-.593.15-.23 0-.446-.054-.594-.15l-.34-.217C8.735.082 8.457 0 8.177 0c-.542 0-1.038.306-1.293.8l-.185.357c-.163.317-.63.595-.998.595h-.03l-.404-.02h-.073c-.408 0-.785.158-1.06.446-.277.29-.42.675-.4 1.086l.02.403c.016.37-.267.86-.595 1.03L2.8 4.88c-.377.196-.644.523-.75.922-.107.398-.04.815.188 1.172l.22.34c.198.31.198.877 0 1.188l-.22.34c-.228.356-.295.773-.188 1.172.106.398.373.725.75.92l.358.185c.328.17.61.66.594 1.028l-.018.403c-.02.412.122.797.398 1.087.276.288.653.448 1.06.448.025 0 .05 0 .074-.002l.403-.02h.03c.29 0 .64.172.855.4v5.588l3.356-1.946 3.325 1.948v-5.555c.212-.244.583-.434.886-.434h.032l.403.02.073.002c.408 0 .785-.16 1.06-.448.278-.29.42-.675.4-1.086l-.02-.402c-.016-.37.267-.86.596-1.03l.357-.184c.38-.195.645-.522.752-.92.107-.4.04-.816-.19-1.173l-.217-.338zm-2.037-.516c0 2.918-2.366 5.283-5.284 5.283-2.92 0-5.285-2.366-5.285-5.284 0-2.918 2.365-5.283 5.284-5.283 2.918 0 5.284 2.365 5.284 5.283z"/><path d="M10.244 6.652c-.8 0-1.447.647-1.447 1.447 0 .796.648 1.444 1.447 1.444.798 0 1.446-.648 1.446-1.445 0-.8-.648-1.448-1.446-1.448z"/></g></g></svg><svg x="200" width="20" height="20" viewBox="0 0 20 20" xmlns="http://www.w3.org/2000/svg"><g fill="none" fill-rule="evenodd"><path d="M15 10c0-2.76-2.24-5-5-5s-5 2.24-5 5 2.24 5 5 5 5-2.24 5-5zm-7 0c0-1.105.895-2 2-2s2 .895 2 2-.895 2-2 2-2-.895-2-2z" fill="#4E4E4E"/></g></svg><svg x="240" width="20" height="20" viewBox="0 0 20 20" xmlns="http://www.w3.org/2000/svg"><g fill="none" fill-rule="evenodd"><circle cx="16" cy="16" r="5" transform="translate(-6 -6)" fill="#4E4E4E"/></g></svg><svg x="280" width="20" height="20" viewBox="0 0 20 20" xmlns="http://www.w3.org/2000/svg"><g fill="none" fill-rule="evenodd"><path d="M1.48 10.258l1.975 2.177 3.032 3.343 1.586 1.75L9.63 15.75l9.953-11.363-3.166-2.774-9.954 11.364 3.14-.027-3.03-3.342L4.598 7.43l-1.04-1.146L.442 9.112l1.04 1.146z" fill="#4E4E4E"/></g></svg><svg x="320" width="21" height="20" viewBox="0 0 21 20" xmlns="http://www.w3.org/2000/svg"><g fill="none" fill-rule="evenodd"><g fill="#4E4E4E"><path d="M11.004.846c-4.99 0-9.05 4.06-9.05 9.052 0 4.99 4.06 9.05 9.05 9.05 4.992 0 9.05-4.06 9.05-9.05 0-4.992-4.058-9.05-9.05-9.052m.193 1.68c1.96.05 3.732.86 5.026 2.153 1.336 1.335 2.162 3.178 2.162 5.218s-.826 3.882-2.162 5.22c-1.337 1.335-3.18 2.16-5.22 2.16-2.038 0-3.88-.825-5.218-2.16-1.336-1.338-2.162-3.18-2.162-5.22 0-2.04.826-3.883 2.162-5.22C7.113 3.353 8.94 2.53 10.963 2.52"/><path d="M9.093 9.585l.004.004.002.002 1.44 1.747.002.002c.094.113.237.194.402.203h.032c.143 0 .277-.054.38-.145l.005-.006.004-.003.23-.222.003-.002.002-.002v-.002l.003-.003.017-.026.006-.004.006-.008 2.582-2.62V8.5h.002l.014-.018c.086-.1.134-.215.146-.33l.005-.01.002-.003v-.02l.002-.007v-.027c0-.142-.055-.277-.148-.384h.002l-.01-.014c-.1-.11-.244-.178-.4-.186h-.003l-.007-.002h-.016c-.084 0-.174.017-.26.06l-.013.007-.015.008-.012.01-.072.06-.02.006L10.9 9.72l-.985-.902h-.002v-.002c-.108-.098-.243-.146-.38-.146L9.5 8.67l.002.003c-.115.007-.23.05-.326.132h-.008l-.004.004-.01.008-.002.002-.01.012-.01.01H9.13v.002l-.01.01-.003.003-.003.008c-.088.1-.144.227-.145.364v.004c0 .128.044.25.122.35"/></g></g></svg><svg x="361" width="20" height="20" viewBox="0 0 20 20" xmlns="http://www.w3.org/2000/svg"><g fill="none" fill-rule="evenodd"><g fill="#4E4E4E"><path d="M10 0C4.486 0 0 4.486 0 10s4.486 10 10 10 10-4.486 10-10S15.514 0 10 0zm0 17.917c-4.373 0-7.917-3.545-7.917-7.917 0-4.373 3.544-7.917 7.917-7.917 4.372 0 7.917 3.544 7.917 7.917 0 4.372-3.545 7.917-7.917 7.917z"/><path d="M6.01 10.052l3.13 3.364 4.885-5.156L12.66 7l-3.507 3.7-1.766-1.896-1.377 1.248"/></g></g></svg><svg x="401" width="20" height="20" viewBox="0 0 20 20" xmlns="http://www.w3.org/2000/svg"><g fill="none" fill-rule="evenodd"><g fill="#4E4E4E"><path d="M7.037 3.3h1.92V2.05h2.05V3.3h1.92V1.885c0-.41-.05-.728-.148-.978-.143-.377-.41-.593-.704-.685-.293-.095-.606-.09-.903-.09C10.38.13 10.38.13 8.79.13c-.41 0-.727.05-.977.146-.377.143-.593.41-.685.704-.094.292-.09.605-.09.903v.117l-.002.22V3.3"/><path d="M15.885 4.627H4.178c-.185 0-.333.15-.334.333v.985c0 .184.15.332.334.332h.636v13.157c0 .184.15.333.334.333h9.767c.184 0 .333-.148.334-.333V6.278h.635c.184 0 .333-.15.333-.333V4.96c0-.185-.15-.333-.333-.333zM13.56 6.27v11.803h-.81v.01H7.306v-.01h-.82V6.27h.82v-.006h5.444v.006h.81z"/><path d="M7.842 7.858H9.52v8.63H7.842V7.86z"/><path d="M10.518 7.858h1.688v8.63h-1.688V7.86z"/></g></g></svg><svg x="441" width="20" height="20" viewBox="0 0 20 20" xmlns="http://www.w3.org/2000/svg"><g fill="none" fill-rule="evenodd"><g fill="#4E4E4E"><path d="M11.998 10l3 3-2 2-3-3L7 15l-2-2 3-3-3-3 2-2 2.998 3 2.998-3 2 2-2.998 3"/></g></g></svg><svg x="481" width="20" height="20" viewBox="0 0 20 20" xmlns="http://www.w3.org/2000/svg"><g fill="none" fill-rule="evenodd"><g fill="#4E4E4E"><path d="M15.492 7.605l-.126.126-.114.115-7.513 7.512-.793-.797 7.868-7.867-1.2-1.197-7.862 7.86-.904-.91 7.858-7.86-1.2-1.198-8.722 8.722c-.085.086-.15.19-.194.302L.2 18.79c-.036.096-.054.197-.054.297 0 .215.08.427.237.588.162.17.383.26.61.26.093 0 .182-.016.266-.043l6.323-2.107c.125-.042.238-.112.33-.204l8.84-8.837-1.2-1.197-.06.06zM3.494 17.36l-.692-.682 1.06-2.822 2.52 2.542-2.888.963z"/><path d="M.2 18.79"/><path d="M19.653 3.784l.012-.013L16.51.617c-.314-.313-.728-.47-1.14-.47-.412 0-.826.156-1.138.47l-.767.766-.002-.002-1.198 1.197 5.314 5.318 1.966-1.966c.312-.314.47-.728.47-1.14 0-.358-.127-.714-.363-1.006zm-4.283-1.91l2.916 2.917-.706.707-2.916-2.916.706-.705z"/></g></g></svg><svg x="521" width="20" height="20" viewBox="0 0 20 20" xmlns="http://www.w3.org/2000/svg"><g fill="none" fill-rule="evenodd"><g fill="#4E4E4E"><path d="M3.198 3.874h1.908c.11 0 .197-.088.198-.195 0 0-.024-1.61-.024-2.057v-.006c0-.367.08-.687.215-.956L5.56.54c-.007.002-.014.005-.02.012L1.832 4.17c-.007.005-.01.012-.014.02.076-.037.18-.088.196-.094.322-.144.714-.222 1.182-.222zm14.838-.394c-.15-.798-.633-1.192-1.07-1.346-.47-.168-1.423-.34-2.62-.48-.965-.112-2.098-.103-2.782-.082-.082-.554-.477-1.06-.918-1.235C9.47-.13 7.652-.016 7.186.113c-.372.102-.782.31-1.01.633-.154.215-.253.49-.254.876 0 .218.007.73.012 1.188l.012.87c0 .407-.336.738-.75.74h-1.91c-.406 0-.716.066-.954.172-.238.107-.406.25-.534.42-.255.336-.3.75-.298 1.175 0 0 .004.347.09 1.017.07.52.64 4.143 1.183 5.245.21.428.35.606.765.795.92.39 3.026.82 4.012.944.985.123 1.603.384 1.97-.376.002-.002.075-.19.174-.464.32-.953.365-1.8.365-2.412 0-.062.09-.065.09 0 0 .432-.082 1.962 1.092 2.373.463.162 1.425.307 2.4.42.885.1 1.526.44 1.526 2.672 0 1.357-.29 1.543-1.804 1.543-1.227 0-1.695.032-1.695-.928 0-.776.78-.694 1.356-.694.258 0 .07-.19.07-.668 0-.476.303-.75.017-.758-1.997-.054-3.172-.002-3.172 2.456 0 2.233.87 2.647 3.703 2.647 2.223 0 3.007-.072 3.924-2.874.182-.554.62-2.242.887-5.077.168-1.794-.16-7.205-.418-8.57zm-3.874 5.98c-.275-.01-.54.008-.785.047.07-.55.3-1.227 1.12-1.2.905.032 1.032.875 1.035 1.446-.382-.168-.855-.275-1.37-.293z"/></g></g></svg><svg x="561" width="20" height="20" viewBox="0 0 20 20" xmlns="http://www.w3.org/2000/svg"><g fill="none" fill-rule="evenodd"><path d="M7.25 20v-9.123H4V7.322h3.25V4.7c0-3.043 1.97-4.7 4.845-4.7 1.377 0 2.56.097 2.905.14v3.18h-1.994c-1.563 0-1.866.702-1.866 1.732v2.27h3.73l-.487 3.555H11.14V20" fill="#4E4E4E"/></g></svg><svg x="601" width="20" height="20" viewBox="0 0 20 20" xmlns="http://www.w3.org/2000/svg"><g fill="none" fill-rule="evenodd"><g fill="#4E4E4E"><path d="M11.228 2.128H5.735c-1.19 0-2.34.46-3.196 1.198-.856.74-1.423 1.76-1.423 2.888 0 1.136.406 2.16 1.12 2.897.71.74 1.73 1.19 2.937 1.19.097 0 .19-.006.28-.015-.11.27-.187.563-.187.875 0 .553.237 1.01.55 1.392-.202.002-.404.004-.618.004-2.92.003-5.192 1.974-5.2 4.09 0 1.048.644 1.897 1.63 2.467.99.574 2.33.886 3.782.887 1.66 0 2.958-.502 3.844-1.267.885-.764 1.354-1.79 1.354-2.823 0-.807-.11-1.467-.404-2.056-.292-.59-.76-1.1-1.45-1.62-.227-.17-.563-.47-.837-.782-.138-.156-.26-.317-.344-.463-.086-.147-.13-.28-.13-.367 0-.286.035-.47.164-.682.13-.21.368-.45.78-.794.87-.72 1.506-1.615 1.505-2.826 0-.71-.146-1.48-.437-2.09-.146-.304-.33-.568-.553-.76-.025-.02-.053-.038-.08-.057h.966l1.438-1.285zM4.193 8.456c-.495-.604-.86-1.434-.973-2.34-.023-.193-.034-.38-.034-.56 0-.752.197-1.393.526-1.84.33-.448.782-.704 1.32-.705l.054.002c1.237.03 2.484 1.47 2.706 3.288.023.19.034.378.034.56 0 .755-.198 1.41-.527 1.868-.332.46-.785.724-1.322.725h-.052c-.618-.02-1.238-.392-1.733-.997zm4.78 7.14c.04.176.06.354.06.538 0 .78-.23 1.45-.79 1.937-.558.49-1.466.8-2.842.8-.963 0-1.786-.326-2.367-.84-.582-.513-.92-1.213-.92-1.978-.002-.73.408-1.41 1.067-1.915.658-.503 1.56-.82 2.514-.82h.05c.444.005.856.08 1.23.21.534.392.987.7 1.327 1.013.345.318.572.632.674 1.056zm8.043-12.58V0h-1.99v3.016h-2.984v2.01h2.984v3.016h1.99V5.026H20v-2.01h-2.984z"/></g></g></svg><svg x="641" width="21" height="20" viewBox="0 0 21 20" xmlns="http://www.w3.org/2000/svg"><g fill="none" fill-rule="evenodd"><path d="M19.766 16.177l-3.568-3.568c.667-1.18 1.052-2.536 1.052-3.984C17.25 4.146 13.605.5 9.125.5S1 4.145 1 8.626c0 4.48 3.645 8.124 8.125 8.124 1.675 0 3.234-.51 4.53-1.383l3.46 3.462c.365.365.846.55 1.325.55.48 0 .96-.185 1.326-.55.733-.732.733-1.92 0-2.652zM3.5 8.627C3.5 5.523 6.023 3 9.125 3c3.1 0 5.625 2.524 5.625 5.626 0 3.1-2.524 5.624-5.625 5.624-3.102 0-5.625-2.524-5.625-5.624z" fill="#4E4E4E"/></g></svg><svg x="682" width="20" height="20" viewBox="0 0 20 20" xmlns="http://www.w3.org/2000/svg"><g fill="none" fill-rule="evenodd"><path d="M.253 6.505H4.54V20H.253V6.505zm2.144-1.842H2.37C.93 4.663 0 3.627 0 2.33 0 1.01.96 0 2.425 0c1.467 0 2.37 1.008 2.397 2.33 0 1.297-.93 2.333-2.425 2.333zM20 20h-4.287v-7.22c0-1.813-.62-3.05-2.172-3.05-1.184 0-1.89.834-2.2 1.64-.112.288-.14.69-.14 1.094V20H6.913s.056-12.23 0-13.495H11.2v1.912c.57-.92 1.588-2.23 3.864-2.23 2.82 0 4.936 1.93 4.936 6.075V20z" fill="#4E4E4E"/></g></svg><svg x="722" width="20" height="20" viewBox="0 0 20 20" xmlns="http://www.w3.org/2000/svg"><g fill="none" fill-rule="evenodd"><g fill="#4E4E4E"><path d="M20 3H0l9.948 9L20 3zM0 4.298v13h20V4.388L9.998 13.41 0 4.3z"/></g></g></svg><svg x="762" width="20" height="20" viewBox="0 0 20 20" xmlns="http://www.w3.org/2000/svg"><g fill="none" fill-rule="evenodd"><path d="M16 20c1.105 0 2-.895 2-2 0-1.104-.895-2-2-2s-2 .896-2 2c0 1.105.895 2 2 2zm0-8c1.105 0 2-.896 2-2s-.895-2-2-2-2 .896-2 2 .895 2 2 2zm0-8c1.105 0 2-.896 2-2 0-1.105-.895-2-2-2s-2 .895-2 2c0 1.104.895 2 2 2zM4 20c1.105 0 2-.895 2-2 0-1.104-.895-2-2-2s-2 .896-2 2c0 1.105.895 2 2 2zm0-8c1.105 0 2-.896 2-2s-.895-2-2-2-2 .896-2 2 .895 2 2 2zm0-8c1.105 0 2-.896 2-2 0-1.105-.895-2-2-2S2 .895 2 2c0 1.104.895 2 2 2z" fill="#4E4E4E"/></g></svg><svg x="802" width="20" height="20" viewBox="0 0 20 20" xmlns="http://www.w3.org/2000/svg"><g fill="none" fill-rule="evenodd"><path d="M8.882 16.12l1.256 1.385 1.232-1.407 7.884-9-2.508-2.196-7.883 9 2.488-.022-8.115-8.95-2.47 2.24 8.117 8.95z" fill="#4E4E4E"/></g></svg><svg x="842" width="20" height="20" viewBox="0 0 20 20" xmlns="http://www.w3.org/2000/svg"><g fill="none" fill-rule="evenodd"><path d="M13.574 9.998L15 11.445l-4.272 3.905-.71.65-.714-.65L5 11.434l1.423-1.45L8.99 12.32V4h2.072v8.294l2.512-2.296z" fill="#4F4F4F"/></g></svg><svg x="882" width="20" height="20" viewBox="0 0 20 20" xmlns="http://www.w3.org/2000/svg"><g fill="none" fill-rule="evenodd"><g><g fill="#4E4E4E"><path d="M10 0C4.486 0 0 4.486 0 10s4.486 10 10 10 10-4.486 10-10S15.514 0 10 0zm0 17.917c-4.372 0-7.917-3.545-7.917-7.917S5.628 2.083 10 2.083c4.373 0 7.917 3.545 7.917 7.917 0 4.373-3.545 7.917-7.917 7.917zM9.95 12.525c-.252-.002-.488.09-.663.265-.18.172-.276.407-.274.657-.002.27.095.52.29.686.18.157.406.242.647.24.235.002.46-.085.635-.245.192-.167.288-.415.286-.68.003-.25-.09-.484-.267-.656-.17-.175-.406-.27-.653-.267"/><path d="M9.974 5.637c-.75-.002-1.39.206-1.88.633H8.09c-.015.01-.212.16-.41.448-.2.286-.402.716-.402 1.266l.002.07.007.26h1.488l.172.023.006-.024h.052V8.08c.076-.34.203-.563.365-.7.173-.144.376-.218.657-.22.298.002.495.075.64.204.154.142.21.272.214.452-.002.126-.035.227-.116.338-.016.02-.086.092-.192.187-.11.097-.258.224-.446.376-.395.323-.672.617-.83.92-.15.296-.218.654-.218 1.066l.005.315.005.262h1.714l-.005-.273v-.084c-.002-.29.036-.488.065-.542.03-.066.18-.246.442-.46.54-.45.9-.804 1.095-1.11.186-.293.285-.62.285-.957.002-.597-.267-1.138-.753-1.564-.5-.443-1.168-.655-1.96-.653"/></g></g></g></svg><svg x="922" width="20" height="20" viewBox="0 0 20 20" xmlns="http://www.w3.org/2000/svg"><g fill="none" fill-rule="evenodd"><g fill="#4E4E4E"><path d="M6.4 10.9c.497 0 .9-.403.9-.9s-.403-.9-.9-.9-.9.403-.9.9.403.9.9.9zm3.9 0c.497 0 .9-.403.9-.9s-.403-.9-.9-.9-.9.403-.9.9.403.9.9.9zm3.9 0c.497 0 .9-.403.9-.9s-.403-.9-.9-.9-.9.403-.9.9.403.9.9.9z"/><path d="M19.25 10c0-5.11-4.14-9.25-9.25-9.25S.75 4.89.75 10s4.14 9.25 9.25 9.25 9.25-4.14 9.25-9.25zm-18 0c0-4.832 3.918-8.75 8.75-8.75s8.75 3.918 8.75 8.75-3.918 8.75-8.75 8.75S1.25 14.832 1.25 10z"/></g></g></svg><svg x="962" width="20" height="20" viewBox="0 0 20 20" xmlns="http://www.w3.org/2000/svg"><g fill="none" fill-rule="evenodd"><path d="M1.875 11c1.036 0 1.875-.895 1.875-2s-.84-2-1.875-2C.84 7 0 7.895 0 9s.84 2 1.875 2zM10 11c1.036 0 1.875-.895 1.875-2S11.035 7 10 7c-1.036 0-1.875.895-1.875 2s.84 2 1.875 2zm8.125 0C19.16 11 20 10.105 20 9s-.84-2-1.875-2c-1.036 0-1.875.895-1.875 2s.84 2 1.875 2z" fill="#4E4E4E"/></g></svg><svg x="1002" width="20" height="20" viewBox="0 0 20 20" xmlns="http://www.w3.org/2000/svg"><g fill="none" fill-rule="evenodd"><path d="M12 18.125c0-1.036-.895-1.875-2-1.875s-2 .84-2 1.875C8 19.16 8.895 20 10 20s2-.84 2-1.875zM12 10c0-1.036-.895-1.875-2-1.875S8 8.965 8 10c0 1.036.895 1.875 2 1.875s2-.84 2-1.875zm0-8.125C12 .84 11.105 0 10 0S8 .84 8 1.875c0 1.036.895 1.875 2 1.875s2-.84 2-1.875z" fill="#4E4E4E"/></g></svg><svg x="1042" width="20" height="20" viewBox="0 0 20 20" xmlns="http://www.w3.org/2000/svg"><g fill="none" fill-rule="evenodd"><path d="M16 8.585v3.056h-4.37V16H8.578v-4.36H4V8.586h4.578V4h3.052v4.585H16z" fill="#4E4E4E"/></g></svg><svg x="1082" width="20" height="20" viewBox="0 0 20 20" xmlns="http://www.w3.org/2000/svg"><g fill="none" fill-rule="evenodd"><path d="M8.938 7.706l-2.512 2.296L5 8.555 9.272 4.65l.71-.65.714.65L15 8.566l-1.423 1.45L11.01 7.68V16H8.937V7.706z" fill="#4F4F4F"/></g></svg><svg x="1122" width="20" height="20" viewBox="0 0 20 20" xmlns="http://www.w3.org/2000/svg"><g fill="none" fill-rule="evenodd"><g fill="#4E4E4E"><path d="M4.76 15.365C6.112 16.685 7.96 17.5 10 17.5c4.142 0 7.5-3.358 7.5-7.5h.006c-.004-.04-.006-.083-.006-.125 0-.69.56-1.25 1.25-1.25s1.25.56 1.25 1.25c0 .042-.002.084-.006.125H20c0 5.523-4.477 10-10 10-2.73 0-5.204-1.094-7.008-2.867L.89 19.235c-.492.492-.89.342-.89-.37V13.76c0-.696.548-1.26 1.26-1.26h5.106c.695 0 .87.39.37.89L4.76 15.365zM17.008 2.867C15.204 1.094 12.73 0 10 0 4.477 0 0 4.477 0 10h.006c-.004.04-.006.083-.006.125 0 .69.56 1.25 1.25 1.25s1.25-.56 1.25-1.25c0-.042-.002-.084-.006-.125H2.5c0-4.142 3.358-7.5 7.5-7.5 2.04 0 3.888.814 5.24 2.135L13.265 6.61c-.5.5-.326.89.37.89h5.106c.712 0 1.26-.564 1.26-1.26V1.135c0-.71-.398-.86-.89-.37l-2.102 2.103z"/></g></g></svg><svg x="1162" width="20" height="20" viewBox="0 0 20 20" xmlns="http://www.w3.org/2000/svg"><g fill="none" fill-rule="evenodd"><path d="M19.315 12.078c.273-1.146.34-2.332.195-3.5l-2.97-.482c-.1-.398-.234-.79-.405-1.17l2.008-2.252c-.303-.494-.653-.966-1.053-1.414-.4-.445-.83-.844-1.284-1.2l-2.44 1.76c-.357-.214-.73-.392-1.116-.537L12.078.27c-1.145-.274-2.332-.34-3.5-.195l-.482 2.97c-.398.1-.79.233-1.17.405L4.674 1.44c-.494.304-.967.655-1.414 1.055-.445.4-.845.828-1.2 1.284l1.76 2.438c-.215.358-.392.732-.537 1.116L.27 7.506C-.004 8.65-.07 9.84.075 11.008l2.97.48c.1.4.233.79.405 1.17L1.44 14.91c.304.494.656.968 1.056 1.414.398.446.828.845 1.283 1.2l2.438-1.76c.358.215.732.393 1.116.538l.172 3.013c1.146.273 2.333.34 3.5.195l.482-2.97c.398-.098.79-.234 1.17-.405l2.252 2.008c.494-.303.968-.653 1.414-1.054.446-.4.846-.83 1.2-1.284l-1.76-2.44c.216-.357.393-.73.538-1.116l3.013-.172zm-6.87.678c-1.637 1.466-4.152 1.327-5.617-.31-1.465-1.637-1.326-4.153.31-5.618 1.638-1.464 4.153-1.326 5.618.312 1.466 1.635 1.326 4.15-.31 5.616z" fill="#4E4E4E"/></g></svg><svg x="1202" width="20" height="20" viewBox="0 0 20 20" xmlns="http://www.w3.org/2000/svg"><g fill="none" fill-rule="evenodd"><g fill="#4E4E4E"><path d="M19.91 10.64c-.29-.84-1.205-1.282-2.043-.992l-1.972.685-1.474-4.247 1.972-.685c.838-.29 1.282-1.205.99-2.043-.29-.838-1.205-1.28-2.043-.99l-1.973.685-.685-1.972c-.29-.838-1.205-1.282-2.043-.99-.84.29-1.283 1.205-.992 2.043l.685 1.972L6.086 5.58 5.4 3.608c-.29-.838-1.205-1.282-2.043-.99-.838.29-1.28 1.205-.99 2.043l.685 1.973-1.972.685C.242 7.608-.202 8.523.09 9.36c.29.84 1.205 1.283 2.043.992l1.972-.685 1.475 4.247-1.972.685c-.838.29-1.282 1.205-.99 2.043.29.838 1.205 1.28 2.043.99l1.973-.685.684 1.973c.292.838 1.207 1.282 2.044.99.84-.29 1.282-1.205.992-2.043l-.685-1.972 4.247-1.475.685 1.972c.29.838 1.205 1.28 2.043.99.838-.29 1.28-1.205.99-2.043l-.684-1.973 1.97-.685c.838-.29 1.282-1.205.99-2.043zM8.614 12.86L7.14 8.615l4.246-1.475 1.475 4.246-4.247 1.475z"/></g></g></svg><svg x="1242" width="39" height="20" viewBox="0 0 39 20" xmlns="http://www.w3.org/2000/svg"><g fill="none" fill-rule="evenodd"><g fill="#4F4F4F"><path d="M19.973.013h2.037V14.73h-2.037V.013z"/><path d="M24.947 5.207h2.037v9.523h-2.037V5.207z"/><path d="M.06.04H6.1v2.046H.06V.04z"/><path d="M17.15 8.113c-.358-.85-.955-1.572-1.707-2.083-.75-.51-1.664-.81-2.637-.81-.648 0-1.27.133-1.836.374-.848.36-1.566.96-2.074 1.715-.508.753-.806 1.67-.806 2.648 0 .65.132 1.276.37 1.844.36.85.956 1.572 1.708 2.083.752.51 1.665.81 2.638.81.648 0 1.27-.133 1.836-.373.848-.36 1.566-.96 2.074-1.715.508-.755.806-1.672.806-2.65 0-.65-.132-1.276-.37-1.844zm-1.877 2.89c-.202.482-.543.895-.97 1.185-.43.29-.94.458-1.497.46-.373 0-.722-.076-1.042-.212-.48-.203-.89-.546-1.18-.975-.288-.43-.455-.942-.456-1.502 0-.375.075-.726.21-1.047.203-.48.544-.893.972-1.183.428-.29.938-.458 1.496-.46.372 0 .722.077 1.042.212.48.203.89.545 1.18.975.288.43.455.942.455 1.503 0 .374-.074.725-.21 1.046z"/><path d="M25.98.007c.558 0 1.02.465 1.02 1.012 0 .56-.462 1.024-1.02 1.024-.545 0-1.008-.464-1.008-1.025 0-.548.463-1.013 1.007-1.013"/><path d="M.06 17.867H6.1v2.046H.06v-2.046z"/><path d="M5.723 10.727c-.222-.376-.53-.685-.887-.92L4.81 9.79 2.75 8.62v.003l-.372-.21c-.11-.075-.188-.162-.235-.243-.05-.085-.07-.16-.07-.245 0-.036.003-.07.01-.105.01-.034.022-.068.04-.104.052-.106.158-.227.32-.32.163-.094.375-.157.615-.157.048 0 .095.004.14.01.258.026.475.126.618.25.084.07.14.147.177.218.035.072.05.136.05.21h2.032c0-.366-.08-.718-.223-1.033-.013-.03-.026-.06-.04-.087-.01-.017-.02-.033-.028-.05-.253-.482-.642-.866-1.102-1.13-.402-.233-.863-.376-1.352-.416-.09-.007-.18-.012-.272-.012-.197 0-.39.017-.578.05-.563.098-1.077.337-1.495.692-.243.208-.45.46-.612.744-.023.04-.048.08-.07.122-.112.228-.192.478-.233.74-.02.124-.03.25-.03.38 0 .465.132.91.355 1.285.222.377.53.686.886.92l.028.02 2.057 1.166.002-.004.37.21c.11.075.187.162.235.242.05.086.07.16.07.246 0 .036-.004.07-.012.105-.008.033-.02.067-.038.103-.052.106-.16.227-.322.32-.162.094-.374.157-.613.157-.08 0-.157-.007-.23-.02-.22-.038-.402-.13-.528-.238-.084-.07-.142-.148-.177-.22-.035-.07-.05-.135-.05-.208H.04c0 .29.052.573.145.836l.025.067.053.13.04.086c.01.017.02.033.028.05.253.482.642.866 1.102 1.13.35.203.745.338 1.163.395.15.02.305.033.462.033.196 0 .39-.016.577-.05.563-.097 1.078-.337 1.496-.69.243-.21.45-.46.61-.745.025-.04.05-.08.07-.122.113-.226.193-.475.234-.734.02-.127.03-.256.03-.386 0-.466-.132-.912-.354-1.287"/><path d="M38.892 9.915V.013h-2.037v6.032c-.014-.01-.025-.022-.04-.03-.75-.512-1.663-.81-2.636-.81-.65 0-1.273.132-1.837.372-.848.36-1.566.96-2.074 1.715-.51.754-.808 1.67-.807 2.65 0 .65.132 1.276.37 1.843.36.85.956 1.573 1.708 2.083.753.51 1.665.81 2.64.81.647 0 1.27-.133 1.835-.373.3-.128.576-.295.84-.478v.903h2.037V9.975c0-.012.003-.022.003-.034 0-.008-.003-.016-.003-.025zm-2.037.036c0 .37-.075.72-.21 1.037-.2.482-.542.894-.97 1.185-.43.29-.938.458-1.496.458-.374 0-.723-.075-1.043-.21-.48-.204-.89-.546-1.18-.976-.288-.43-.456-.943-.456-1.503 0-.373.076-.725.21-1.046.203-.48.544-.894.972-1.184.43-.29.938-.458 1.497-.458.37 0 .72.075 1.04.21.48.204.89.546 1.18.976.286.427.452.934.455 1.49v.023z"/></g></g></svg><svg x="1301" width="20" height="20" viewBox="0 0 20 20" xmlns="http://www.w3.org/2000/svg"><g fill="none" fill-rule="evenodd"><path d="M6.75.25h6.5v2.007h-6.5V.25zm6.095 10.487c-.238-.37-.568-.673-.95-.903l-.03-.018L9.657 8.67v.004l-.398-.206c-.117-.074-.202-.16-.253-.238-.053-.084-.075-.158-.076-.24.002-.036.006-.07.015-.104.008-.033.022-.066.04-.102.056-.104.17-.223.345-.314.174-.092.402-.154.66-.154.05 0 .1.003.15.008.276.026.51.125.662.245.09.07.152.145.19.214.037.07.053.134.054.205h2.18c0-.36-.088-.704-.24-1.013-.014-.03-.028-.058-.044-.086l-.03-.047c-.27-.474-.687-.85-1.18-1.11-.433-.228-.927-.37-1.452-.407-.096-.007-.193-.012-.29-.012h-.002c-.21 0-.417.016-.62.048-.602.096-1.155.332-1.603.68-.26.203-.483.45-.656.73-.026.04-.053.078-.075.12-.122.223-.208.468-.25.725-.022.122-.033.246-.033.372 0 .457.142.894.38 1.262.238.368.568.672.95.903l.03.017 2.207 1.145v-.002l.397.206c.118.075.202.16.253.24.054.083.075.157.076.24 0 .035-.005.07-.013.102-.01.034-.023.067-.042.103-.054.104-.168.222-.343.314-.174.09-.402.153-.66.153-.084 0-.166-.007-.245-.02-.234-.037-.432-.127-.566-.233-.09-.07-.153-.146-.19-.215-.038-.07-.054-.134-.055-.206H6.753c0 .285.055.562.155.82l.027.066c.018.043.037.084.057.126l.045.086.03.048c.27.474.687.85 1.18 1.11.377.198.8.33 1.25.387.16.02.326.032.493.032.21 0 .418-.017.62-.05.604-.095 1.156-.33 1.604-.678.26-.204.484-.45.656-.73.025-.04.052-.078.074-.12.12-.22.207-.465.25-.72.02-.123.033-.25.033-.378 0-.458-.142-.895-.38-1.263zM6.75 17.743h6.5v2.007h-6.5v-2.007z" fill="#4F4F4F"/></g></svg><svg x="1341" width="20" height="20" viewBox="0 0 20 20" xmlns="http://www.w3.org/2000/svg"><g fill="none" fill-rule="evenodd"><g fill="#4E4E4E"><path d="M4 10c0-.556-.358-1-.8-1H.8c-.445 0-.8.448-.8 1 0 .556.358 1 .8 1h2.4c.445 0 .8-.448.8-1"/><path d="M4.343 14.1L2.645 15.8c-.314.315-.25.883.142 1.273.393.394.96.455 1.273.143l1.697-1.698c.314-.314.25-.882-.142-1.272-.393-.394-.96-.454-1.272-.142"/><path d="M4.343 5.9c.314.313.882.248 1.272-.143.393-.393.454-.96.142-1.272L4.06 2.787c-.315-.314-.883-.25-1.273.142-.393.392-.454.96-.142 1.272L4.343 5.9"/><path d="M15.373 5.9L17.07 4.2c.315-.315.25-.883-.14-1.273-.394-.394-.96-.455-1.274-.143L13.96 4.485c-.316.314-.25.882.14 1.272.394.394.96.454 1.273.142"/><path d="M10 4c.556 0 1-.358 1-.8V.8c0-.445-.448-.8-1-.8-.556 0-1 .358-1 .8v2.4c0 .445.448.8 1 .8"/><path d="M19.2 9h-2.4c-.445 0-.8.448-.8 1 0 .556.358 1 .8 1h2.4c.445 0 .8-.448.8-1 0-.556-.358-1-.8-1"/><path d="M10 16c-.556 0-1 .358-1 .8v2.4c0 .445.448.8 1 .8.556 0 1-.358 1-.8v-2.4c0-.445-.448-.8-1-.8"/><path d="M10 5c-2.76 0-5 2.24-5 5s2.24 5 5 5 5-2.24 5-5-2.24-5-5-5zm.056 8.11C8.368 13.11 7 11.744 7 10.057 7 8.368 8.368 7 10.056 7c1.687 0 3.055 1.368 3.055 3.056 0 1.687-1.367 3.055-3.054 3.055z"/><path d="M15.373 14.1c-.314-.313-.882-.248-1.272.143-.393.393-.453.96-.14 1.272l1.696 1.698c.315.314.882.25 1.273-.142.392-.392.453-.96.14-1.272L15.373 14.1"/></g></g></svg><svg x="1381" width="20" height="20" viewBox="0 0 20 20" xmlns="http://www.w3.org/2000/svg"><g fill="none" fill-rule="evenodd"><g fill="#4E4E4E"><path d="M15.373 9.435l1.697-1.85c.315-.345.25-.964-.14-1.39-.394-.43-.96-.495-1.274-.154L13.96 7.893c-.316.343-.25.963.14 1.39.394.428.96.494 1.273.153"/><path d="M10 7.364c.556 0 1-.39 1-.873V3.874C11 3.387 10.552 3 10 3c-.556 0-1 .39-1 .873V6.49c0 .486.448.874 1 .874"/><path d="M19.2 12.818h-4.3c-.463-2.49-2.48-4.364-4.9-4.364-2.42 0-4.437 1.874-4.9 4.364H.8c-.445 0-.8.49-.8 1.09C0 14.517.358 15 .8 15h18.4c.445 0 .8-.488.8-1.09 0-.608-.358-1.092-.8-1.092zm-12.03 0c.413-1.27 1.524-2.182 2.83-2.182s2.418.91 2.83 2.182H7.17z"/><path d="M4.343 9.435c.314.343.882.272 1.272-.154.393-.428.454-1.047.142-1.388L4.06 6.042c-.315-.344-.883-.273-1.273.153-.393.43-.454 1.048-.142 1.39l1.698 1.85"/></g></g></svg><svg x="1421" width="20" height="20" viewBox="0 0 20 20" xmlns="http://www.w3.org/2000/svg"><g fill="none" fill-rule="evenodd"><g fill="#4F4F4F"><path d="M10 2.083c4.373 0 7.917 3.545 7.917 7.917 0 4.373-3.545 7.917-7.917 7.917S2.083 14.372 2.083 10 5.628 2.083 10 2.083M10 0C4.486 0 0 4.486 0 10s4.486 10 10 10 10-4.486 10-10S15.514 0 10 0"/><path d="M14.337 10.013l-.596-.678.006-.004-.252-.285v-.002L10.717 5.89 9.336 7.17l1.65 1.873H5.658v1.91h5.33L9.335 12.83l1.382 1.28 3.623-4.096h-.003"/></g></g></svg><svg x="1461" width="20" height="20" viewBox="0 0 20 20" xmlns="http://www.w3.org/2000/svg"><g fill="none" fill-rule="evenodd"><path d="M20 4.012c-.736.342-1.527.572-2.357.676.848-.53 1.498-1.372 1.804-2.375-.792.493-1.67.85-2.605 1.042C16.092 2.52 15.027 2 13.847 2 11.58 2 9.743 3.922 9.743 6.292c0 .336.037.663.107.978-3.41-.18-6.434-1.888-8.458-4.485C1.04 3.42.837 4.157.837 4.943c0 1.49.724 2.802 1.825 3.572C1.99 8.493 1.357 8.3.804 7.978v.054c0 2.08 1.414 3.814 3.29 4.21-.344.096-.706.15-1.08.15-.264 0-.522-.028-.772-.078.522 1.705 2.037 2.946 3.833 2.98C4.67 16.447 2.9 17.133.98 17.133c-.333 0-.66-.02-.98-.06C1.816 18.29 3.973 19 6.29 19c7.547 0 11.675-6.54 11.675-12.21 0-.187-.005-.372-.012-.556.8-.605 1.497-1.36 2.047-2.222L8.284 9.838" fill="#4E4E4E"/></g></svg><svg x="1501" width="20" height="20" viewBox="0 0 20 20" xmlns="http://www.w3.org/2000/svg"><g fill="none" fill-rule="evenodd"><g fill="#4E4E4E"><path d="M15.5 8.178c0-.758-.154-1.486-.433-2.146-.418-.99-1.114-1.83-1.99-2.424-.877-.594-1.942-.942-3.077-.94-.756 0-1.483.153-2.14.432-.99.42-1.827 1.117-2.42 1.996-.593.878-.94 1.945-.94 3.082 0 .757.154 1.485.433 2.145.418.99 1.114 1.83 1.99 2.424.877.594 1.942.943 3.077.942l.04-.002v3.645l4.184-5.63c.118-.143.232-.29.336-.443l.05-.077c.564-.872.89-1.905.89-3.005z"/></g></g></svg><svg x="1541" width="89" height="20" viewBox="0 0 89 20" xmlns="http://www.w3.org/2000/svg"><g fill="none" fill-rule="evenodd"><g fill="#4E4E4E"><path d="M89.017 6.65h-1.882l-1.913 5.433-2.096-5.433h-2.06l3.208 7.644c-.285.615-.532.777-.98.784-.34 0-.672-.108-.98-.275l-.086-.047-.67 1.455.077.042c.542.292 1.096.47 1.846.47 1.262.006 1.995-.62 2.596-2.177L89.15 6.65h-.133"/><path d="M73.15 6.647c-1.143-.002-1.926.386-2.488 1.084V3.8h-1.93v10.665h1.93V13.38c.54.632 1.324 1.085 2.49 1.083 1.864-.003 3.558-1.23 3.56-3.794-.002-2.564-1.71-4.02-3.56-4.023zm-.403 1.68c1.13.004 2.08.896 2.084 2.342-.003 1.46-.938 2.11-2.083 2.112-1.13-.002-2.126-.833-2.128-2.262 0-1.43.996-2.19 2.127-2.192z"/><path d="M64.683 6.65c-1.132 0-1.948.505-2.568 1.263-.43-.762-1.206-1.265-2.276-1.263-1.077-.002-1.747.525-2.23 1.123V6.65h-1.93v7.81h1.93v-4.255c.007-1.14.623-1.793 1.537-1.798.915.008 1.44.594 1.45 1.74v4.313h1.928v-4.27c.01-1.182.634-1.776 1.538-1.783.93.01 1.438.578 1.45 1.755v4.298h1.928V9.632c.002-.94-.255-1.687-.735-2.2-.48-.513-1.175-.782-2.022-.782"/><path d="M78.026 3.802h1.93v10.65h-1.93V3.802z"/><path d="M31.516 11.62l-1.63-4.972h-1.62l-1.614 4.97L25.19 6.65h-1.985l2.525 7.803h1.69l1.65-4.962 1.634 4.963h1.69L34.95 6.65h-1.94l-1.494 4.97"/><path d="M36.403 14.455h1.928V6.65h-1.927v7.805z"/><path d="M43.44 9.76c-.907-.28-1.68-.428-1.652-.86v-.03c.002-.38.32-.66.975-.667.608 0 1.376.264 2.1.702l.082.05.78-1.388-.07-.047c-.824-.54-1.876-.873-2.85-.873-1.545.002-2.8.905-2.8 2.395v.028c0 1.515 1.324 1.886 2.445 2.196.907.267 1.66.418 1.634.898v.028c-.002.435-.36.7-1.09.71-.754 0-1.63-.307-2.44-.912l-.077-.06-.88 1.326.067.052c.97.758 2.184 1.15 3.286 1.15 1.612-.002 2.916-.806 2.918-2.452v-.03c-.004-1.43-1.322-1.875-2.428-2.216"/><path d="M54.368 10.74v.012c-.027-2.194-1.28-4.105-3.738-4.11-2.232.005-3.808 1.712-3.812 3.93.004 2.392 1.748 3.872 4 3.876 1.423.002 2.45-.573 3.184-1.45l-1.16-1.025c-.596.576-1.17.873-1.996.875-1.05-.004-1.842-.35-2.074-1.472H54.374c0-.392 0-.516-.006-.635zm-5.614-.692c.187-1.083.88-1.804 1.862-1.806 1.062.003 1.676.77 1.822 1.806h-3.684z"/><path d="M36.402 3.802h1.94v1.925h-1.94V3.803z"/><path d="M11.948.22L1.7 3.523l-.004.004v.004l2.52 4.677.004.003.005-.002L11.955.23V.223L11.947.22"/><path d="M12.918 1.548L9.205 5.38l.007.004 10.054 4.84-6.348-8.676"/><path d="M13.462 9.224l-1.528 10.964 6.336-8.65-4.808-2.314"/><path d="M13.462 9.224h-.006l-1.53 10.984 6.352-8.672-4.82-2.32-.002.008h.006l-.003.005 4.8 2.31-6.318 8.627 1.525-10.942h-.005l-.003.004.002-.006"/><path d="M11.09 14.41l-11 1.95 10.273 3.317.733-5.268h-.007"/><path d="M5.394 13.783L.127 4.003.124 14.726l5.274-.935-.004-.007"/></g></g></svg><svg x="1650" width="20" height="20" viewBox="0 0 20 20" xmlns="http://www.w3.org/2000/svg"><g fill="none" fill-rule="evenodd"><path d="M13.927 9.2h-.002l.002-.005h-.006l.003-.008 5.004 2.325-6.595 8.692 1.59-11.01h.005l-.002.006.002-.005h.006V9.2l-.006-.003V9.2zm-8.374 4.565L.085 3.962.082 14.71l5.474-.94-.003-.005zm5.91.628L.048 16.347l10.664 3.325.762-5.28h-.008zm1.9-12.892L9.51 5.344l.006.003 10.436 4.85-6.59-8.695zM12.356.17L1.718 3.48l-.004.003v.005L4.33 8.175l.004.003h.005L12.36.18V.173L12.357.17z" fill="#4E4E4E"/></g></svg></svg>